<?xml version="1.0" standalone="no"?>
<!DOCTYPE svg PUBLIC "-//W3C//DTD SVG 20010904//EN"
 "http://www.w3.org/TR/2001/REC-SVG-20010904/DTD/svg10.dtd">
<svg version="1.0" xmlns="http://www.w3.org/2000/svg"
 width="463.000000pt" height="463.000000pt" viewBox="0 0 463.000000 463.000000"
 preserveAspectRatio="xMidYMid meet">
<metadata>
Created by potrace 1.14, written by Peter Selinger 2001-2017
</metadata>
<g transform="translate(0.000000,463.000000) scale(0.100000,-0.100000)"
fill="#000000" stroke="none">
<path d="M1024 4608 c-13 -3 -39 -9 -57 -12 -18 -3 -73 -12 -124 -21 -84 -14
-96 -14 -150 1 -64 18 -113 24 -188 22 -27 0 -71 -1 -97 -2 -27 -1 -48 -4 -48
-8 0 -5 -9 -8 -19 -8 -15 0 -24 -13 -37 -57 -9 -32 -18 -69 -19 -83 -1 -14 -5
-32 -8 -40 -7 -17 -3 -204 5 -235 3 -11 -3 -25 -14 -35 -51 -42 -74 -219 -44
-332 20 -72 54 -168 65 -182 5 -6 10 -14 10 -18 1 -5 1 -9 2 -10 0 -2 2 -11 4
-22 4 -20 42 -122 55 -147 5 -10 4 -21 -3 -28 -6 -6 -7 -11 -1 -11 5 0 4 -4
-2 -8 -15 -9 -27 -82 -26 -157 2 -108 4 -150 10 -159 3 -6 7 -19 8 -30 3 -33
14 -79 22 -90 4 -6 7 -13 7 -16 1 -12 30 -76 37 -81 5 -3 11 -16 13 -30 3 -13
9 -25 15 -27 6 -2 8 -8 4 -13 -3 -5 -1 -9 4 -9 5 0 15 -13 22 -30 7 -16 17
-30 23 -30 6 0 8 -3 4 -6 -3 -4 -1 -12 6 -20 22 -24 32 -39 46 -66 8 -16 18
-28 23 -28 4 0 8 -5 8 -11 0 -6 12 -25 26 -44 24 -31 25 -38 18 -104 -3 -39
-10 -71 -13 -71 -8 0 -3 -66 6 -90 3 -8 7 -28 9 -45 7 -52 42 -148 83 -230 23
-44 41 -85 41 -92 0 -7 4 -13 9 -13 9 0 18 -18 23 -45 3 -20 67 -135 80 -145
3 -3 8 -11 10 -19 4 -15 43 -65 76 -94 12 -11 22 -24 22 -29 0 -5 14 -21 31
-36 172 -151 269 -246 269 -261 0 -6 5 -11 10 -11 6 0 23 -11 38 -25 15 -14
32 -25 39 -25 7 0 13 -7 13 -15 0 -8 7 -15 15 -15 9 0 18 -7 21 -15 4 -8 10
-15 16 -15 5 0 24 -11 42 -25 18 -14 38 -25 45 -25 7 0 10 -4 6 -9 -3 -5 4
-12 15 -16 11 -3 20 -10 20 -15 0 -5 7 -7 15 -4 8 4 15 1 15 -5 0 -11 47 -36
63 -33 4 1 7 -3 7 -8 0 -6 9 -10 20 -10 11 0 20 -4 20 -10 0 -5 10 -10 23 -10
12 0 30 -7 40 -15 11 -7 27 -12 38 -10 10 2 21 -1 24 -6 4 -5 11 -7 16 -4 5 4
14 3 21 -1 7 -4 24 -9 38 -10 14 -1 39 -6 55 -9 17 -4 38 -7 48 -7 9 0 17 -4
17 -10 0 -5 6 -8 13 -5 7 3 21 -1 31 -9 11 -7 23 -11 27 -8 5 3 9 0 9 -5 0 -6
3 -10 8 -9 4 2 63 -19 132 -46 124 -48 159 -62 235 -96 22 -10 55 -24 73 -32
17 -7 32 -16 32 -20 0 -5 3 -7 8 -6 4 1 28 -8 54 -20 26 -12 52 -22 57 -22 6
0 11 -4 11 -10 0 -5 7 -10 15 -10 8 0 15 -4 15 -10 0 -5 7 -7 15 -4 8 4 15 2
15 -3 0 -5 6 -10 13 -10 17 0 87 -43 87 -54 0 -5 4 -9 10 -9 10 0 39 -21 77
-57 13 -13 28 -23 33 -23 6 0 10 -4 10 -10 0 -5 8 -10 17 -10 9 0 14 -2 11 -5
-3 -3 21 -31 52 -63 63 -62 150 -167 150 -179 0 -5 9 -14 20 -21 12 -7 18 -17
15 -22 -3 -6 -2 -10 4 -10 6 0 17 -12 25 -27 8 -16 15 -24 16 -19 0 5 7 3 15
-4 8 -7 15 -9 15 -5 0 4 7 2 14 -5 8 -6 30 -14 48 -18 52 -9 220 -4 243 9 6 3
47 5 92 5 46 -1 83 2 83 6 0 3 -12 17 -27 30 -53 45 -225 278 -206 278 3 0 -1
8 -10 18 -10 10 -14 22 -10 25 3 4 2 7 -4 7 -13 0 -76 136 -80 174 -2 16 -8
34 -13 41 -6 7 -8 20 -4 29 3 9 2 16 -3 16 -5 0 -9 8 -10 18 -3 42 -8 62 -15
62 -4 0 -5 6 -2 14 3 8 0 25 -7 38 -13 23 -21 273 -10 293 3 6 6 24 7 40 0 17
4 48 8 70 7 38 15 103 21 170 2 17 4 30 5 30 3 0 10 38 16 80 8 56 10 68 17
85 8 21 27 111 31 141 1 13 5 29 8 34 3 6 9 35 12 65 4 30 9 69 11 85 6 37 16
117 16 130 2 52 -11 357 -15 364 -3 5 -8 39 -11 76 -3 36 -9 74 -14 83 -21 42
-21 87 1 127 19 35 22 57 24 184 4 190 31 315 81 372 38 42 116 79 169 79 24
0 45 4 49 10 3 5 12 7 20 3 8 -3 15 0 15 7 0 6 4 9 9 6 5 -4 25 10 45 29 20
19 36 32 36 28 0 -3 29 24 65 62 36 37 65 73 65 80 0 7 6 17 13 23 7 6 12 27
11 47 -2 28 2 36 15 34 42 -4 56 2 58 24 1 12 3 33 5 47 2 14 1 37 -3 52 -4
15 -3 30 2 34 5 3 7 9 4 14 -3 4 6 15 20 24 14 9 25 14 25 11 0 -3 10 3 22 15
12 11 25 20 29 20 3 0 12 14 19 30 7 17 16 30 20 30 12 0 60 102 65 136 2 16
4 29 5 29 9 0 12 67 7 130 -4 46 -45 146 -64 158 -7 4 -13 12 -13 17 0 6 -9
19 -20 30 -11 11 -20 18 -20 15 0 -3 -10 3 -22 15 -12 11 -27 20 -34 20 -7 0
-14 3 -16 8 -9 21 -161 72 -175 59 -3 -4 -14 -2 -24 3 -10 6 -20 6 -23 1 -3
-5 -26 -12 -51 -15 -25 -4 -45 -11 -45 -15 0 -4 -18 -13 -40 -20 -22 -6 -40
-15 -40 -19 0 -4 -15 -16 -32 -27 -37 -21 -63 -45 -51 -45 4 -1 -3 -10 -16
-20 -13 -11 -19 -20 -15 -20 5 0 4 -4 -2 -8 -5 -4 -20 -34 -32 -67 -18 -49
-22 -75 -18 -140 2 -44 10 -93 16 -110 26 -64 54 -115 62 -115 4 0 8 -6 8 -12
1 -20 42 -62 88 -90 23 -13 39 -28 35 -31 -3 -4 -7 -35 -7 -69 -2 -72 11 -91
55 -90 16 0 29 -3 29 -8 0 -5 7 -7 15 -4 10 4 15 0 15 -15 0 -12 -4 -21 -8
-21 -4 0 -19 -18 -32 -40 -14 -22 -33 -42 -43 -46 -9 -3 -16 -8 -14 -12 2 -4
-4 -15 -15 -25 -10 -9 -18 -14 -18 -10 0 3 -9 -2 -21 -13 -11 -10 -37 -19 -57
-20 -20 -1 -37 -3 -37 -4 0 -2 -9 -4 -20 -5 -114 -15 -162 -50 -212 -155 -17
-36 -20 -43 -22 -61 0 -6 -26 14 -56 45 -31 31 -59 56 -64 56 -15 0 -46 35
-49 55 -2 11 -7 22 -11 25 -4 3 -13 21 -21 40 -8 19 -19 40 -25 47 -21 26 -30
39 -44 66 -8 15 -18 27 -23 27 -4 0 -8 7 -8 15 0 9 -7 18 -15 21 -8 4 -13 10
-10 14 3 5 -17 32 -45 60 -42 43 -50 58 -54 96 -2 24 -8 50 -13 57 -5 7 -9 19
-8 27 1 8 -3 24 -9 35 -5 11 -11 29 -13 39 -2 11 -8 25 -13 31 -5 7 -7 15 -3
18 3 4 0 7 -7 7 -7 0 -10 3 -7 6 9 9 -33 84 -58 106 -11 10 -16 17 -12 18 12
0 -40 50 -53 50 -5 0 -10 5 -10 10 0 6 -7 10 -15 10 -8 0 -15 4 -15 9 0 23
-186 115 -235 116 -11 0 -24 3 -30 6 -5 3 -37 4 -70 2 -33 -2 -81 -5 -107 -6
-27 -1 -48 -5 -48 -8 0 -3 -17 -6 -37 -7 -63 -2 -119 -9 -131 -16 -6 -4 -22
-4 -37 -2 -14 3 -25 1 -25 -4 0 -4 -9 -6 -19 -3 -19 5 -63 41 -138 115 -24 23
-43 39 -43 36 0 -4 -14 6 -32 22 -17 16 -34 28 -37 28 -3 -1 -19 4 -36 11 -16
7 -39 14 -50 16 -11 1 -27 5 -35 8 -50 19 -124 26 -168 16 -26 -5 -60 -12 -77
-13 -16 -2 -45 -7 -62 -11 -24 -5 -33 -4 -33 5 0 7 -7 10 -15 6 -8 -3 -15 -2
-15 3 0 5 -12 12 -27 15 -34 8 -97 38 -101 49 -2 4 -10 7 -18 7 -8 0 -17 6
-20 13 -3 8 -10 14 -17 15 -66 6 -112 6 -133 0z m3041 -229 c0 -1 11 -3 25 -4
14 -1 37 -7 51 -13 33 -13 101 -81 93 -93 -3 -5 0 -9 6 -9 6 0 9 -4 5 -9 -3
-5 -2 -12 3 -15 16 -10 -2 -156 -20 -168 -7 -4 -8 -8 -3 -8 6 0 1 -7 -9 -15
-11 -8 -17 -15 -13 -15 12 0 -34 -44 -68 -66 -16 -11 -41 -20 -55 -19 -14 1
-31 -3 -37 -8 -8 -6 -18 -5 -27 2 -8 6 -18 11 -22 9 -21 -6 -104 59 -104 81 0
6 -4 11 -9 11 -11 0 -35 58 -36 85 0 11 -3 25 -6 30 -3 6 -4 21 -3 35 5 35 12
74 14 80 1 3 2 8 1 13 0 4 5 7 12 7 7 0 17 10 22 21 6 12 13 20 17 18 4 -2 15
6 23 18 9 13 22 20 30 17 8 -4 15 -1 15 5 0 7 10 9 25 7 14 -3 25 -1 25 5 0 5
10 7 23 5 12 -3 22 -5 22 -7z"/>
</g>
</svg>
